<svg xmlns="http://www.w3.org/2000/svg" width="2133" height="2133" viewBox="0 0 2133 2133">
  <defs>
    <style>
      .cls-1, .cls-2, .cls-3 {
        fill: #d44418;
      }

      .cls-1, .cls-2, .cls-4 {
        stroke: #000;
        stroke-width: 1px;
      }

      .cls-1, .cls-3, .cls-4 {
        fill-rule: evenodd;
      }

      .cls-4 {
        fill: #fff;
      }
    </style>
  </defs>
  <path class="cls-1" d="M1078.01,2126.23l-4.02-4.46,360-324,4.02,4.46Z"/>
  <path id="bottom" class="cls-1" d="M737,1747c76.693-1.03,109.973,80.46,207,64,45.2-7.67,66.25-37.8,113-48,35.05-7.65,99.51-14.92,133-4,26.13,8.52,42.82,28.39,71,34,13.23,2.63,40.28,3.67,54-1,19.71-6.72,40.27-27.85,72-19,23.45,6.54,19.07,26.09,33,34,13.17-4.8,35.97-19.96,48-13-0.33,2-.67,4-1,6-6.3,11.89-22.4,10.52-32,19q-2.505,6-5,12c-15.98,14-42.04,14.06-55,31q-6.495,13.5-13,27c-12.38,16.22-36.77,22.55-53,35-16.14,12.38-26.36,31.41-42,44l-46,34c-23.76,19.44-40.85,46.83-62,69-14.31,15-33.56,24.03-50,37q-10.005,10.995-20,22c-2-.33-4-0.67-6-1-6.26-3.42-5.03-8.45-9-14l-28-22q-31.5-21.495-63-43l-20-24c-31.375-25.13-60.633-51.66-91-77-45.763-38.18-103.02-65.02-145-107C694.284,1809.29,695.861,1769.27,737,1747Z"/>
  <path class="cls-1" d="M1096.02,2126.21l-4.04-4.42,315-288,4.04,4.42Z"/>
  <path class="cls-1" d="M885.866,1952.65l-3.732,4.7-306-243,3.732-4.7Z"/>
  <rect id="Rounded_Rectangle_1" data-name="Rounded Rectangle 1" class="cls-2" x="576" y="315" width="873" height="1229" rx="10" ry="10"/>
  <path id="Color_Fill_1" data-name="Color Fill 1" class="cls-3" d="M1013,0c269.86-3.085,435.22,59.593,596,163,32.31,20.78,60.35,48.52,90,72,42.34,33.529,75.71,77.889,111,115,5.48,5.758,32.69,38.945,31,41,48.25,54.246,80.08,127.93,110,195,5.16,11.56,32.4,72.276,29,81,44.03,122.265,58.17,320.362,26,469-16.75,77.39-39.85,140.15-66,208-13.94,36.19-37.44,72.21-58,105-111.11,177.24-263.63,308.07-469,391-55.43,22.38-116.68,35.17-180,49l-101,12c-12.25,5.42-120.55-.5-133-3-30.864-6.2-57.9-3.22-87-9-86.149-17.12-162.665-41.81-233-73-153.374-68.01-285.393-173.92-375-306-21.625-31.87-40.308-61.65-60-93-3.772-6-22.523-36.77-21-40-19.335-37.06-36.772-79-51-121-3.885-11.47-18.61-36.91-15-49-37.138-123.02-47.793-310.063-17-451C207.476,447.166,420.147,187.132,701,73c58.091-23.607,120.074-40.447,186-57L979,3Zm-13,1457h214V432H977L760,620,899,782l24-20c15.316-13.162,66.669-49.983,74-65h4Q1000.5,1076.962,1000,1457Zm1526-428,150,537m-993,401"/>
  <path id="_8" data-name="8" class="cls-4" d="M1058,401c154.54-2.358,245.72,77.141,295,181,11.96,25.194,37.3,95.085,29,137q-1.995,21-4,42a372.437,372.437,0,0,1-33,93c-4.51,8.766-23.85,33.274-20,40q21,25.5,42,51c23.57,38.008,36.53,79.78,47,132,11.61,57.92-7.18,121.35-25,159-61.59,130.12-167.15,193.94-371,183-24.915-1.34-50.755-5.91-72-13-120.154-40.12-185.317-121.87-212-257-7.121-36.06-2.49-86.95,7-116,10.749-32.91,23.3-63.023,40-90,9.011-14.554,38.871-38.825,42-54-18.466-20.519-29.958-49.357-40-78-58.564-167.034,34.691-310.85,139-371,23-13.265,52.035-24.045,80-31Zm0,216c-37.97,19.714-60.821,23.653-75,68-18.628,58.263,40.34,129.493,99,118C1198.99,780.078,1194.45,614.907,1058,617Zm-16,400q-15,2.5-30,5c-27.121,9.57-51.523,33.81-61,61-20.508,58.85,21.137,104.52,59,117,14.91,4.92,37.75,3,57,3,42.85,0,77.56.52,100-19,42.68-37.13,42.96-106.68,0-144C1139.58,1016.18,1094.65,1016.39,1042,1017Z"/>
</svg>
