<svg xmlns="http://www.w3.org/2000/svg" width="2133" height="2133" viewBox="0 0 2133 2133">
  <defs>
    <style>
      .cls-1, .cls-2, .cls-3 {
        fill: #d44418;
      }

      .cls-1, .cls-2, .cls-4 {
        stroke: #000;
        stroke-width: 1px;
      }

      .cls-1, .cls-3, .cls-4 {
        fill-rule: evenodd;
      }

      .cls-4 {
        fill: #fff;
      }
    </style>
  </defs>
  <path class="cls-1" d="M1078.01,2126.23l-4.02-4.46,360-324,4.02,4.46Z"/>
  <path id="bottom" class="cls-1" d="M737,1747c76.693-1.03,109.973,80.46,207,64,45.2-7.67,66.25-37.8,113-48,35.05-7.65,99.51-14.92,133-4,26.13,8.52,42.82,28.39,71,34,13.23,2.63,40.28,3.67,54-1,19.71-6.72,40.27-27.85,72-19,23.45,6.54,19.07,26.09,33,34,13.17-4.8,35.97-19.96,48-13-0.33,2-.67,4-1,6-6.3,11.89-22.4,10.52-32,19q-2.505,6-5,12c-15.98,14-42.04,14.06-55,31q-6.495,13.5-13,27c-12.38,16.22-36.77,22.55-53,35-16.14,12.38-26.36,31.41-42,44l-46,34c-23.76,19.44-40.85,46.83-62,69-14.31,15-33.56,24.03-50,37q-10.005,10.995-20,22c-2-.33-4-0.67-6-1-6.26-3.42-5.03-8.45-9-14l-28-22q-31.5-21.495-63-43l-20-24c-31.375-25.13-60.633-51.66-91-77-45.763-38.18-103.02-65.02-145-107C694.284,1809.29,695.861,1769.27,737,1747Z"/>
  <path class="cls-1" d="M1096.02,2126.21l-4.04-4.42,315-288,4.04,4.42Z"/>
  <path class="cls-1" d="M885.866,1952.65l-3.732,4.7-306-243,3.732-4.7Z"/>
  <rect id="Rounded_Rectangle_1" data-name="Rounded Rectangle 1" class="cls-2" x="576" y="315" width="873" height="1229" rx="10" ry="10"/>
  <path id="Color_Fill_1" data-name="Color Fill 1" class="cls-3" d="M1013,0c269.86-3.085,435.22,59.593,596,163,32.31,20.78,60.35,48.52,90,72,42.34,33.529,75.71,77.889,111,115,5.48,5.758,32.69,38.945,31,41,48.25,54.246,80.08,127.93,110,195,5.16,11.56,32.4,72.276,29,81,44.03,122.265,58.17,320.362,26,469-16.75,77.39-39.85,140.15-66,208-13.94,36.19-37.44,72.21-58,105-111.11,177.24-263.63,308.07-469,391-55.43,22.38-116.68,35.17-180,49l-101,12c-12.25,5.42-120.55-.5-133-3-30.864-6.2-57.9-3.22-87-9-86.149-17.12-162.665-41.81-233-73-153.374-68.01-285.393-173.92-375-306-21.625-31.87-40.308-61.65-60-93-3.772-6-22.523-36.77-21-40-19.335-37.06-36.772-79-51-121-3.885-11.47-18.61-36.91-15-49-37.138-123.02-47.793-310.063-17-451C207.476,447.166,420.147,187.132,701,73c58.091-23.607,120.074-40.447,186-57L979,3Zm-13,1457h214V432H977L760,620,899,782l24-20c15.316-13.162,66.669-49.983,74-65h4Q1000.5,1076.962,1000,1457Zm1526-428,150,537m-993,401"/>
  <path id="_4" data-name="4" class="cls-4" d="M929,453V997h138v216H929v254H715V1213H267V1003L395,821c55.624-82.38,114.7-162.06,170-244,26.072-38.635,54.7-93.2,88-124H929ZM715,997q-0.5-125.988-1-252h-4L536,995q0.5,1,1,2H715Z"/>
  <path id="_6" data-name="6" class="cls-4" d="M1489,453c76.25-1.539,136.37,13.191,187,37,14.63,6.88,37.53,9.719,48,21q-30.99,73.992-62,148c-3.08,7.822-16.03,46.128-21,48-7.35,2.766-22.53-8.843-28-11-25.8-10.165-50.08-20.92-80-27-82.25-16.713-155.7,47.006-181,90-10.44,17.734-29.3,47.786-24,76,1.33,0.667,2.67,1.333,4,2,225.37-81,412.2,75.277,451,250,44.43,200.11-97.33,346.39-230,393-41.5,14.58-113.01,22.38-166,11-142.66-30.63-241.55-127.26-272-270-15.29-71.69-5.99-184.98-6-268-0.01-118.636,3.65-192.835,39-274,41.1-94.363,124.97-160.787,221-201l80-21Zm-46,578q-15,2.505-30,5c-36.34,12.36-67.93,41.42-81,77-31.64,86.14,43.64,185.15,139,166C1614.75,1250.12,1604.03,1029.57,1443,1031Z"/>
</svg>
