<svg xmlns="http://www.w3.org/2000/svg" width="2133" height="2133" viewBox="0 0 2133 2133">
  <defs>
    <style>
      .cls-1, .cls-2, .cls-3 {
        fill: #d44418;
      }

      .cls-1, .cls-2, .cls-4 {
        stroke: #000;
        stroke-width: 1px;
      }

      .cls-1, .cls-3, .cls-4 {
        fill-rule: evenodd;
      }

      .cls-4 {
        fill: #fff;
      }
    </style>
  </defs>
  <path class="cls-1" d="M1078.01,2126.23l-4.02-4.46,360-324,4.02,4.46Z"/>
  <path id="bottom" class="cls-1" d="M737,1747c76.693-1.03,109.973,80.46,207,64,45.2-7.67,66.25-37.8,113-48,35.05-7.65,99.51-14.92,133-4,26.13,8.52,42.82,28.39,71,34,13.23,2.63,40.28,3.67,54-1,19.71-6.72,40.27-27.85,72-19,23.45,6.54,19.07,26.09,33,34,13.17-4.8,35.97-19.96,48-13-0.33,2-.67,4-1,6-6.3,11.89-22.4,10.52-32,19q-2.505,6-5,12c-15.98,14-42.04,14.06-55,31q-6.495,13.5-13,27c-12.38,16.22-36.77,22.55-53,35-16.14,12.38-26.36,31.41-42,44l-46,34c-23.76,19.44-40.85,46.83-62,69-14.31,15-33.56,24.03-50,37q-10.005,10.995-20,22c-2-.33-4-0.67-6-1-6.26-3.42-5.03-8.45-9-14l-28-22q-31.5-21.495-63-43l-20-24c-31.375-25.13-60.633-51.66-91-77-45.763-38.18-103.02-65.02-145-107C694.284,1809.29,695.861,1769.27,737,1747Z"/>
  <path class="cls-1" d="M1096.02,2126.21l-4.04-4.42,315-288,4.04,4.42Z"/>
  <path class="cls-1" d="M885.866,1952.65l-3.732,4.7-306-243,3.732-4.7Z"/>
  <rect id="Rounded_Rectangle_1" data-name="Rounded Rectangle 1" class="cls-2" x="576" y="315" width="873" height="1229" rx="10" ry="10"/>
  <path id="Color_Fill_1" data-name="Color Fill 1" class="cls-3" d="M1013,0c269.86-3.085,435.22,59.593,596,163,32.31,20.78,60.35,48.52,90,72,42.34,33.529,75.71,77.889,111,115,5.48,5.758,32.69,38.945,31,41,48.25,54.246,80.08,127.93,110,195,5.16,11.56,32.4,72.276,29,81,44.03,122.265,58.17,320.362,26,469-16.75,77.39-39.85,140.15-66,208-13.94,36.19-37.44,72.21-58,105-111.11,177.24-263.63,308.07-469,391-55.43,22.38-116.68,35.17-180,49l-101,12c-12.25,5.42-120.55-.5-133-3-30.864-6.2-57.9-3.22-87-9-86.149-17.12-162.665-41.81-233-73-153.374-68.01-285.393-173.92-375-306-21.625-31.87-40.308-61.65-60-93-3.772-6-22.523-36.77-21-40-19.335-37.06-36.772-79-51-121-3.885-11.47-18.61-36.91-15-49-37.138-123.02-47.793-310.063-17-451C207.476,447.166,420.147,187.132,701,73c58.091-23.607,120.074-40.447,186-57L979,3Zm-13,1457h214V432H977L760,620,899,782l24-20c15.316-13.162,66.669-49.983,74-65h4Q1000.5,1076.962,1000,1457Zm1526-428,150,537m-993,401"/>
  <path id="_3" data-name="3" class="cls-4" d="M342,1194l216-15c8.722,4.96,10.512,20.68,16,29,6.768,10.27,19.725,23.25,30,30,68.373,44.94,157.881,6.52,179-54,6.054-17.35,3.188-47.42-2-62-23.16-65.1-103.372-78.57-191-78V923c0-12.579-3.247-36.759,3-44,5.118-6.981,62.086-8.257,75-11,58.848-12.5,135.884-35.807,118-122-14.976-72.174-114.379-116-185-65-13.219,9.547-26.661,24.783-34,40q-2.5,8.5-5,17H539L342,722v-5c7.5-23.712,9.75-47.683,19-69,29.548-68.093,85.441-131.425,153-161,176.442-77.24,383.1-15.958,459,115,40.7,70.218,50.49,186.145,14,270l-34,60c-6.293,9.054-18.652,16.637-21,29,28.484,26.7,46.7,64.08,61,105,7.17,20.52,12.12,43.59,17,68,9.63,48.13-8.3,116.59-21,145-47.648,106.61-125.414,155.34-255,181-34.764,6.88-90.759,7.28-126,0-116.112-23.99-191.72-84-239-177C356.745,1258.89,343.584,1227.42,342,1194Z"/>
  <path id="_5" data-name="5" class="cls-4" d="M1185.07,453h608.69V662.448H1361.78c-3.91,38.558-17.18,73.2-17.67,114.421,62.24-.479,128.71-8.956,184.57,3.879,161.09,37.007,313.43,207.547,254.28,422.772-10.76,39.17-28.03,76.72-49.09,106.67-50.87,72.34-124.61,123.64-224.82,147.39-29.33,6.94-78.66,10.55-111.92,3.87-26.58-5.33-49.45-4.95-72.65-12.6-88.7-29.26-149.77-79.56-196.36-150.3-20.21-30.69-44.89-74.41-47.12-120.24q74.61-5.325,149.23-10.66c15.87-3.32,53.56-8.85,65.78-1.94,14.94,40.75,48.93,69.69,91.3,83.39,108.78,35.16,227.72-63.74,189.48-177.45-15.48-46.05-50.29-76.958-97.19-92.12-28.9-9.343-101.87-5.252-135.49.969l-255.26,9.7c-0.82-44.185,16.82-104.225,25.53-145.45Q1149.72,648.893,1185.07,453Z"/>
</svg>
